<svg viewBox="0 0 500 500" xmlns="http://www.w3.org/2000/svg">
  <rect width="500" height="500" rx="80" fill="#0b0d15"/>
  <g fill="#c4973c" transform="translate(0,8)">
    <path d="M250 80 C230 80 215 95 215 115 C215 130 225 143 238 148 L220 160 C200 150 170 155 155 175 C140 195 145 220 160 232 C150 235 140 245 145 258 C150 270 165 272 178 268 C175 278 180 290 192 292 C204 294 212 284 210 273 C218 280 230 282 240 278 L240 320 C240 330 235 345 225 350 C215 355 210 365 215 375 C220 385 232 385 240 380 L250 395 L260 380 C268 385 280 385 285 375 C290 365 285 355 275 350 C265 345 260 330 260 320 L260 278 C270 282 282 280 290 273 C288 284 296 294 308 292 C320 290 325 278 322 268 C335 272 350 270 355 258 C360 245 350 235 340 232 C355 220 360 195 345 175 C330 155 300 150 280 160 L262 148 C275 143 285 130 285 115 C285 95 270 80 250 80Z"/>
    <path d="M215 115 C210 95 195 85 180 90 C170 93 165 103 168 113 C158 110 148 115 148 125 C148 135 158 140 168 138 C162 145 163 155 172 158 C181 161 188 154 188 145 L215 148 Z"/>
    <path d="M285 115 C290 95 305 85 320 90 C330 93 335 103 332 113 C342 110 352 115 352 125 C352 135 342 140 332 138 C338 145 337 155 328 158 C319 161 312 154 312 145 L285 148 Z"/>
  </g>
</svg>
